<svg width="121" height="42" viewBox="0 0 121 42" fill="none" xmlns="http://www.w3.org/2000/svg">
    <path d="M58.8831 24.7684H50.4786C49.5133 24.7684 48.991 25.4355 48.991 26.245V35.9114C48.991 36.862 49.6743 37.4075 50.5193 37.4075C51.3436 37.4075 52.0069 36.8613 52.0069 35.9114V27.7008H57.3755V35.9107C57.3755 36.8613 58.0388 37.4068 58.8838 37.4068C59.7081 37.4068 60.3921 36.8405 60.3921 35.8899V26.2443C60.3915 25.4355 59.849 24.7684 58.8831 24.7684Z" fill="black"/>
    <path d="M73.522 24.7684H73.4018C72.5174 24.7684 71.9336 25.2131 71.3103 26.1033L66.404 33.0999V26.2645C66.404 25.3139 65.8008 24.7684 64.9765 24.7684C64.1322 24.7684 63.5089 25.3146 63.5089 26.2645V35.5869C63.5089 36.5979 64.1522 37.2859 65.1776 37.2859H65.3185C66.2637 37.2859 66.8669 36.8008 67.45 35.951L72.3564 28.9543V35.7891C72.3564 36.7397 72.9596 37.2859 73.8039 37.2859C74.6282 37.2859 75.2514 36.7397 75.2514 35.7891V26.4667C75.2514 25.4153 74.6282 24.7684 73.522 24.7684Z" fill="black"/>
    <path d="M90.2918 34.3535H89.5276V26.1436C89.5276 25.193 88.8442 24.6468 87.9992 24.6468C87.1749 24.6468 86.511 25.193 86.511 26.1436V34.3535H81.2833V26.1436C81.2833 25.193 80.6401 24.6468 79.775 24.6468C78.9307 24.6468 78.2674 25.193 78.2674 26.1436V35.8099C78.2674 36.6188 78.8104 37.2859 79.755 37.2859H88.8035V38.6207C88.8035 39.5713 89.4468 40.1168 90.2711 40.1168C91.1154 40.1168 91.7587 39.5706 91.7587 38.6207V35.8502C91.7593 34.8587 91.1768 34.3535 90.2918 34.3535Z" fill="black"/>
    <path d="M105.393 34.3535H104.629V26.1436C104.629 25.193 103.945 24.6468 103.1 24.6468C102.276 24.6468 101.612 25.193 101.612 26.1436V34.3535H96.3844V26.1436C96.3844 25.193 95.7412 24.6468 94.8761 24.6468C94.0318 24.6468 93.3685 25.193 93.3685 26.1436V35.8099C93.3685 36.6188 93.9116 37.2859 94.8561 37.2859H103.905V38.6207C103.905 39.5713 104.548 40.1168 105.372 40.1168C106.217 40.1168 106.86 39.5706 106.86 38.6207V35.8502C106.86 34.8587 106.277 34.3535 105.393 34.3535Z" fill="black"/>
    <path d="M120.092 35.1623L115.99 26.1839C115.527 25.193 114.884 24.7684 113.959 24.7684H113.798C112.833 24.7684 112.19 25.193 111.727 26.1839L107.625 35.1623C107.223 36.0518 107.504 36.8405 108.309 37.1441C109.032 37.4276 109.756 37.2657 110.158 36.4166L111.083 34.4549C111.908 34.7384 112.933 34.8795 113.898 34.8795C114.924 34.8795 115.829 34.7378 116.592 34.4549L117.477 36.3964C117.859 37.2456 118.644 37.4075 119.347 37.1441C120.152 36.8405 120.473 36.0115 120.092 35.1623ZM113.898 32.1897C113.275 32.1897 112.611 32.109 112.109 31.9673L113.858 28.0447L115.608 31.9673C115.125 32.109 114.522 32.1897 113.898 32.1897Z" fill="black"/>
    <path d="M62.503 14.2992H61.7388V6.19005C61.7388 5.38121 61.1957 4.71413 60.2512 4.71413H53.3542C52.55 4.71413 52.0069 5.26029 52.0069 6.2102V8.17183C52.0069 9.58729 51.9869 10.679 51.7457 11.8519C51.5046 13.0047 51.2027 13.7121 50.7605 14.2986H50.4191C49.4539 14.2986 48.9916 14.9052 48.9916 15.7751V18.5658C48.9916 19.5163 49.6349 20.0618 50.4599 20.0618C51.3042 20.0618 51.9475 19.5157 51.9475 18.5658V17.2309H61.016V18.5658C61.016 19.5163 61.6593 20.0618 62.4836 20.0618C63.3279 20.0618 63.9712 19.5157 63.9712 18.5658V15.7751C63.9705 14.9059 63.5083 14.2992 62.503 14.2992ZM58.7228 14.2992H53.8365C54.1385 13.6523 54.3796 13.0658 54.5807 12.1764C54.7817 11.2459 54.8626 10.3155 54.8826 9.10226L54.9026 7.64649H58.7228V14.2992Z" fill="black"/>
    <path d="M71.0491 4.61269C67.45 4.61269 64.6752 7.34284 64.6752 10.9826C64.6752 14.6627 67.45 17.3525 71.0491 17.3525C74.6482 17.3525 77.423 14.5619 77.423 10.9423C77.423 7.30253 74.6482 4.61269 71.0491 4.61269ZM71.0491 14.5014C69.0786 14.5014 67.6511 13.0047 67.6511 10.9624C67.6511 8.96051 69.0786 7.46376 71.0491 7.46376C73.0397 7.46376 74.4472 8.95984 74.4472 10.9624C74.4472 13.0047 73.0998 14.5014 71.0491 14.5014Z" fill="black"/>
    <path d="M99.703 4.61269C96.1039 4.61269 93.3291 7.34284 93.3291 10.9826C93.3291 14.6627 96.1039 17.3525 99.703 17.3525C103.302 17.3525 106.077 14.5619 106.077 10.9423C106.077 7.30253 103.302 4.61269 99.703 4.61269ZM99.703 14.5014C97.7324 14.5014 96.3049 13.0047 96.3049 10.9624C96.3049 8.96051 97.7331 7.46376 99.703 7.46376C101.694 7.46376 103.101 8.95984 103.101 10.9624C103.101 13.0047 101.754 14.5014 99.703 14.5014Z" fill="black"/>
    <path d="M91.257 14.2992H90.4928V6.19005C90.4928 5.38121 89.9498 4.71413 89.0052 4.71413H82.1083C81.304 4.71413 80.761 5.26029 80.761 6.2102V8.17183C80.761 9.58729 80.7409 10.679 80.4998 11.8519C80.2586 13.0047 79.9567 13.7121 79.5145 14.2986H79.1725C78.2073 14.2986 77.745 14.9052 77.745 15.7751V18.5658C77.745 19.5163 78.3883 20.0618 79.2132 20.0618C80.0576 20.0618 80.7008 19.5157 80.7008 18.5658V17.2309H89.7694V18.5658C89.7694 19.5163 90.4127 20.0618 91.237 20.0618C92.0813 20.0618 92.7246 19.5157 92.7246 18.5658V15.7751C92.7252 14.9059 92.2623 14.2992 91.257 14.2992ZM87.4769 14.2992H82.5906C82.8925 13.6523 83.1336 13.0658 83.3347 12.1764C83.5358 11.2459 83.6166 10.3155 83.6366 9.10226L83.6567 7.64649H87.4769V14.2992Z" fill="black"/>
    <path d="M18.768 0.739824C30.5005 0.739824 39.5109 8.85639 39.5109 20.9023C39.5109 33.0126 30.5005 41.2608 18.768 41.2608H5.61007C2.95216 41.2608 0.74781 39.4934 0.74781 36.4172V5.77959C0.74781 2.70279 2.95216 0.739151 5.61007 0.739151H18.768V0.739824Z" fill="#FF6900"/>
    <path d="M9.90256 21.9711C9.90256 18.2393 8.71489 14.8461 9.10499 12.7205L9.01013 12.5976C7.6588 14.0157 6.77974 13.6409 6.68421 13.1841C6.49183 12.2698 8.07362 11.1506 8.9774 10.7616C8.99477 10.7018 9.01815 10.6393 9.04287 10.5762C8.1972 10.7072 7.20391 10.5997 7.16917 9.99104C7.12842 9.26954 8.5686 8.62529 10.451 8.78518C10.4864 8.75495 10.5231 8.72472 10.5599 8.69449C10.4416 8.64679 10.3147 8.58767 10.1564 8.50571C9.6701 8.25379 9.55187 7.83527 9.71085 7.53095C9.88519 7.1964 10.4176 7.06607 10.8491 7.07547C11.5264 7.08958 12.1029 7.25484 12.5244 7.42682C12.5718 7.40667 12.6199 7.38651 12.6653 7.36905C12.509 7.24611 12.3728 7.11242 12.2933 6.97538C12.177 6.77451 12.1483 6.49841 12.3734 6.31971C12.6366 6.11078 13.3046 6.03689 13.9085 6.58843C14.0334 6.70196 14.1389 6.8128 14.2344 6.91895C14.3019 6.90618 14.3694 6.89275 14.4375 6.882C14.338 6.72749 14.2585 6.56626 14.2331 6.41645C14.1977 6.21155 14.2645 5.99121 14.5036 5.91328C14.7648 5.82796 15.0955 5.96299 15.2671 6.21894C15.4508 6.49303 15.5637 6.83027 15.6345 7.0701C14.3032 7.22595 10.7723 8.03681 10.7723 12.3289C10.7723 16.5141 14.2298 20.911 14.2298 27.3985C14.2244 29.7558 13.7074 32.1205 11.5825 34.8748C9.94197 37.0017 7.3355 39.054 3.27148 40.7389C3.96819 41.0808 4.76576 41.2608 5.6101 41.2608H7.07098C10.4329 39.3879 12.1016 37.6708 13.2578 36.0599C15.5123 37.0702 17.6812 37.5042 19.6358 37.5042C23.3003 37.5042 26.4238 35.8066 28.0524 32.7788C29.7283 31.7671 30.8399 29.6873 30.91 28.2013C31.9541 26.8805 32.1471 25.2131 31.8265 24.0879C31.7497 23.8198 31.5332 23.8118 31.1578 24.0415C27.856 26.0327 24.6583 26.9806 21.607 26.9806C19.7567 26.9806 17.8589 26.685 15.8396 26.0972C15.6953 23.9206 15.2511 22.0954 15.0855 20.9889C14.8497 19.5278 15.185 18.4469 16.7795 18.4469C17.9491 18.4469 20.1134 18.7458 21.8428 19.5365C23.5555 20.3198 24.5748 21.8616 25.2869 21.8616C25.5761 21.8616 25.8801 21.6809 25.8801 21.0655C25.8801 19.8187 25.4379 17.8113 24.8881 17.0959C26.4906 17.0039 27.7638 17.0207 28.4799 17.1019C29.9721 17.3626 30.0423 18.1157 30.3362 18.6067C30.6301 19.0978 31.1284 19.3115 31.7276 19.3115C32.8371 19.3115 33.5292 18.7357 33.5292 16.6579C33.5292 12.0937 30.6642 9.88154 27.6596 9.88154C25.1927 9.88154 24.2402 10.427 21.8976 10.427C20.2356 10.427 18.8589 7.02643 16.9705 6.57969C16.1362 4.71413 14.2658 4.50386 13.1136 5.44101C12.0675 4.80079 10.4316 5.14609 10.3641 6.32777C9.16043 5.95291 7.60603 6.60589 8.27602 8.19669C5.33288 8.28066 4.7838 10.898 6.78107 11.1902C4.21 12.6533 5.38498 15.1806 7.54257 14.6432C7.69487 16.4382 8.4183 19.3363 8.4183 21.3376C8.4183 24.1208 7.16316 24.7671 5.44711 24.7671C4.0911 24.7671 2.10051 24.272 0.751846 23.885V25.8258C2.11654 26.1671 4.16324 26.6051 5.69894 26.6051C8.40227 26.6058 9.90256 25.0102 9.90256 21.9711ZM15.8657 28.2758C17.718 28.7931 20.2784 29.0692 22.4025 28.9194C26.1359 28.6561 28.9388 27.2581 30.5166 26.2403C29.5687 28.648 26.0137 30.1434 22.5669 30.5666C22.5448 30.742 22.5188 30.9133 22.4874 31.0785C25.0732 30.9401 27.5287 30.095 28.6415 29.3231C28.0049 31.6912 24.842 32.6431 21.971 32.7802C21.8902 32.9663 21.8047 33.1416 21.7165 33.3082C23.3885 33.3384 24.9897 33.0267 25.9435 32.7244C25.0852 34.3723 22.1227 35.6742 19.1054 35.6742C17.6225 35.6742 15.7721 35.3834 14.1663 34.6148C15.3266 32.4799 15.7735 30.2919 15.8657 28.2758ZM23.3337 14.926C23.7405 13.7067 24.0939 12.787 24.7539 12.0857C25.4492 11.3467 26.2214 11.1156 27.9168 11.1156C30.258 11.1156 32.2139 13.4958 32.2139 16.8225C32.2139 17.3169 31.5539 17.3136 31.3422 16.8614C30.5459 15.4473 29.4671 15.2438 27.7678 15.1181C26.514 15.0442 25.0017 15.1511 23.6243 15.2102C23.3671 15.2236 23.295 15.0429 23.3337 14.926Z" fill="black"/>
    <path d="M0.74781 31.7449C2.1626 31.4621 3.55468 31.2001 3.55468 31.2001L3.73236 30.4329C3.09377 30.4007 1.82727 30.4155 0.74781 30.445V31.7449Z" fill="black"/>
    <path d="M15.9959 8.83825C16.4902 8.67098 17.2003 9.16138 17.5803 9.92991C17.9604 10.6984 17.8669 11.4602 17.3726 11.6242C16.8823 11.7988 16.1756 11.3084 15.7935 10.5359C15.7421 10.4317 15.7013 10.3283 15.6672 10.2262L15.7534 10.202C15.9117 10.3531 16.1008 10.3948 16.227 10.3135C16.4007 10.1986 16.3826 9.89364 16.2357 9.63029C16.1308 9.41465 15.8883 9.18893 15.6879 9.20572L15.6532 9.16004C15.728 9.0062 15.8416 8.892 15.9959 8.83825ZM19.4607 16.5719C17.247 16.0828 14.8242 15.4366 13.5324 13.5267C13.5083 13.4911 13.4642 13.4749 13.4228 13.487C13.3821 13.4985 13.3527 13.5361 13.3507 13.5791C13.346 13.6832 13.36 13.7974 13.3834 13.9109L13.2084 13.9774C12.8677 13.4951 12.7982 12.9093 13.1362 12.4881C13.6225 11.8821 14.6092 11.9439 15.1983 12.3181L15.1235 12.4814C14.8075 12.4283 14.5063 12.4283 14.2712 12.5721C14.0714 12.6943 14.044 12.8757 14.1669 13.1055C15.2397 15.1108 18.3592 15.5461 22.0659 15.2559C22.4486 15.2256 22.5368 15.0523 22.5862 14.8669C22.9082 13.5757 23.492 12.4243 24.3611 11.5469C23.6851 11.6423 23.0565 11.6638 22.5081 11.694C20.5936 11.8156 19.4988 11.563 19.1568 11.2883L19.2189 11.121C19.4226 11.1915 19.6344 11.2077 19.6778 11.1472C19.7373 11.0659 19.6918 11.0149 19.5983 10.9322C19.2349 10.5896 17.6017 8.9061 17.6051 8.91551C17.4287 7.49199 15.3673 7.44026 14.5457 8.84094L14.2665 8.7657C14.348 8.45869 14.4702 8.20811 14.5838 8.02606C12.8624 8.41704 11.8831 9.97089 11.7054 11.4717C10.9426 17.9229 20.6711 16.4322 23.4519 19.0159C23.5047 19.0575 23.637 19.247 23.7318 19.1274C23.84 18.776 22.6149 17.2739 19.4607 16.5719Z" fill="white"/>
    <path d="M30.5139 26.2363C28.9367 27.2534 26.1312 28.6534 22.3999 28.9167C20.277 29.0665 17.7133 28.7891 15.8623 28.2718C15.8336 28.8925 15.7714 29.5334 15.6652 30.1803C16.7086 30.4497 18.5663 30.8058 21.2462 30.8824C21.1267 31.6072 20.3952 34.0667 18.5222 35.6568C21.9363 35.8005 25.0297 34.4657 25.9395 32.7204C24.9856 33.0227 23.3838 33.3344 21.7125 33.3042C21.8007 33.1382 21.8862 32.9622 21.967 32.7761C24.8367 32.6398 28.0009 31.6858 28.6375 29.3191C27.5246 30.0903 25.0671 30.9361 22.4833 31.0745C22.5147 30.9092 22.5408 30.7386 22.5628 30.5626C26.009 30.14 29.5667 28.6419 30.5139 26.2363Z" fill="white"/>
</svg>